<?xml version="1.0" standalone="no"?>
<!DOCTYPE svg PUBLIC "-//W3C//DTD SVG 20010904//EN"
 "http://www.w3.org/TR/2001/REC-SVG-20010904/DTD/svg10.dtd">
<svg version="1.0" xmlns="http://www.w3.org/2000/svg"
 width="500.000000pt" height="500.000000pt" viewBox="0 0 500.000000 500.000000"
 preserveAspectRatio="xMidYMid meet">
<metadata>
Created by potrace 1.14, written by Peter Selinger 2001-2017
</metadata>
<g transform="translate(0.000000,500.000000) scale(0.100000,-0.100000)"
fill="#000000" stroke="none">
<path d="M1829 4476 c-2 -2 -30 -6 -62 -10 -32 -3 -62 -8 -65 -10 -4 -2 -25
-7 -46 -10 -60 -10 -207 -61 -284 -100 -220 -111 -397 -274 -612 -566 -158
-215 -288 -486 -305 -637 -2 -25 39 -93 58 -94 7 0 49 0 93 1 169 3 182 10
210 109 55 198 139 366 265 531 60 79 190 209 249 250 19 13 41 30 48 37 21
21 136 82 200 107 169 67 365 80 487 34 44 -17 129 -72 160 -105 59 -61 104
-210 99 -328 -4 -109 -35 -310 -69 -452 -14 -60 -266 -1056 -280 -1108 -9 -33
-29 -112 -46 -175 -87 -325 -168 -579 -219 -682 -79 -160 -216 -308 -342 -371
-83 -41 -134 -52 -243 -51 -81 1 -115 11 -237 67 -77 35 -105 55 -80 58 69 7
183 72 260 147 124 121 178 254 169 412 -8 151 -64 246 -172 296 -61 28 -107
36 -206 37 -304 1 -550 -269 -550 -602 1 -183 54 -327 181 -493 63 -81 124
-128 220 -169 122 -52 221 -67 415 -65 94 2 179 5 191 8 182 51 300 117 438
247 63 61 156 171 201 238 l27 43 59 -88 c160 -239 385 -393 644 -443 109 -20
402 -17 485 6 8 2 26 6 40 9 92 16 285 95 390 158 235 143 514 457 654 735 72
144 155 381 151 428 -3 33 -20 55 -49 65 -65 21 -238 10 -268 -17 -9 -8 -36
-71 -58 -139 -92 -276 -233 -494 -435 -672 -196 -172 -392 -259 -599 -267
-185 -6 -373 101 -425 243 -47 129 -47 259 3 512 8 41 17 86 20 100 4 21 26
126 41 190 29 130 65 279 101 425 25 99 47 188 49 198 7 32 154 593 221 842
86 320 151 452 292 599 80 83 206 167 273 182 46 10 204 12 268 3 73 -10 170
-51 201 -84 l22 -23 -24 -7 c-12 -4 -48 -19 -78 -33 -211 -97 -330 -274 -330
-491 0 -112 23 -182 82 -246 102 -112 249 -145 444 -100 86 20 134 48 208 121
103 103 154 194 181 324 44 211 -1 423 -124 580 -98 126 -255 225 -428 271
-102 28 -315 34 -406 12 -34 -8 -66 -16 -72 -17 -26 -5 -145 -53 -185 -74
-134 -73 -298 -223 -399 -364 l-54 -76 -58 88 c-149 222 -410 391 -689 445
-39 7 -294 17 -301 11z"/>
</g>
</svg>
